<svg width="355" height="474" viewBox="0 0 355 474" fill="none" xmlns="http://www.w3.org/2000/svg">

<!-- Top layer -->
<path d="M0       0L59.1667 59.2779L118.333 118.556L118.333 0L0       0Z" fill="#8FB734"/>
<path d="M118.333 0L177.499 59.2779L236.666 118.556L236.666 0L118.333 0Z" fill="#8FB734"/>
<path d="M236.667 0L295.833 59.2779L355     118.556L355     0L236.667 0Z" fill="#8FB734"/>

<!-- 2nd layer -->
<path d="M0       118.222L59.1667 177.5L118.333 236.778L118.333 118.222L0       118.222Z" fill="#FFC633"/>
<path d="M118.333 118.222L177.499 177.5L236.666 236.778L236.666 118.222L118.333 118.222Z" fill="#8FB734"/>
<path d="M236.667 118.222L295.833 177.5L355     236.778L355     118.222L236.667 118.222Z" fill="#8FB734"/>

<!-- 3rd layer -->
<path d="M0       236.444L59.1667 295.722L118.333 355L118.333 236.444L0       236.444Z" fill="#5BC0EB"/>
<path d="M118.333 236.444L177.499 295.722L236.666 355L236.666 236.444L118.333 236.444Z" fill="#5BC0EB"/>
<path d="M236.667 236.444L295.833 295.722L355     355L355     236.444L236.667 236.444Z" fill="#8FB734"/>

<!-- Bottom layer -->
<path d="M0       354.84L59.1667 414.118L118.333 473.396L118.333 354.84L0       354.84Z" fill="#FFC633"/>
<path d="M118.333 354.84L177.499 414.118L236.666 473.396L236.666 354.84L118.333 354.84Z" fill="#5BC0EB"/>
<path d="M236.667 354.84L295.833 414.118L355     473.396L355     354.84L236.667 354.84Z" fill="#FFC633"/>

</svg>
