<svg width="778" height="623" viewBox="0 0 778 623" fill="none" xmlns="http://www.w3.org/2000/svg">

<!-- Top layer -->
<path d="M0       0L77.7777 77.7779L155.555 155.556L155.555 0L0       0Z" fill="#8FB734"/>
<path d="M155.555 0L233.332 77.7777L311.110 155.555L311.110 0L155.555 0Z" fill="#8FB734"/>
<path d="M311.111 0L388.889 77.7777L466.667 155.555L466.667 0L311.111 0Z" fill="#8FB734"/>
<path d="M466.666 0L544.444 77.7777L622.222 155.555L622.221 0L466.666 0Z" fill="#8FB734"/>
<path d="M622.223 0L700     77.7777L777.778 155.555L777.778 0L622.223 0Z" fill="#8FB734"/>

<!-- 2nd layer -->
<path d="M0       155.56L77.7777 233.338L155.555 311.116L155.555 155.56L0       155.56Z" fill="#FFC633"/>
<path d="M155.555 155.56L233.332 233.338L311.110 311.116L311.110 155.56L155.555 155.56Z" fill="#8FB734"/>
<path d="M311.111 155.56L388.889 233.338L466.667 311.116L466.667 155.56L311.111 155.56Z" fill="#8FB734"/>
<path d="M466.666 155.56L544.444 233.338L622.222 311.116L622.221 155.56L466.666 155.56Z" fill="#FFC633"/>
<path d="M622.223 155.56L700     233.338L777.778 311.116L777.778 155.56L622.223 155.56Z" fill="#8FB734"/>

<!-- 3rd layer -->
<path d="M0       311.11L77.7777 388.888L155.555 466.666L155.555 311.11L0       311.11Z" fill="#5BC0EB"/>
<path d="M155.555 311.11L233.332 388.888L311.110 466.666L311.11  311.11L155.555 311.11Z" fill="#5BC0EB"/>
<path d="M311.111 311.11L388.889 388.888L466.667 466.666L466.667 311.11L311.111 311.11Z" fill="#8FB734"/>
<path d="M466.666 311.11L544.444 388.888L622.222 466.666L622.221 311.11L466.666 311.11Z" fill="#5BC0EB"/>
<path d="M622.223 311.11L700     388.888L777.778 466.666L777.778 311.11L622.223 311.11Z" fill="#5BC0EB"/>

<!-- Bottom layer -->
<path d="M0       466.66L77.7777 544.438L155.555 622.216L155.555 466.66L0       466.66Z" fill="#FFC633"/>
<path d="M155.555 466.66L233.332 544.438L311.110 622.216L311.11  466.66L155.555 466.66Z" fill="#5BC0EB"/>
<path d="M311.111 466.66L388.889 544.438L466.667 622.216L466.667 466.66L311.111 466.66Z" fill="#FFC633"/>
<path d="M466.666 466.66L544.444 544.438L622.222 622.216L622.221 466.66L466.666 466.66Z" fill="#FFC633"/>
<path d="M622.223 466.66L700     544.438L777.778 622.216L777.778 466.66L622.223 466.66Z" fill="#5BC0EB"/>
</svg>
