<svg width="1400" height="467" viewBox="0 0 1400 467" fill="none" xmlns="http://www.w3.org/2000/svg">

<!-- Top layer -->
<path d="M0 0.00012207L77.7777 77.7779L155.555 155.556L155.555 0.000115271L0 0.00012207Z" fill="#8FB734"/>
<path d="M155.555 0L233.332 77.7777L311.11 155.555L311.11 -6.79955e-06L155.555 0Z" fill="#8FB734"/>
<path d="M311.111 0L388.889 77.7777L466.667 155.555L466.667 -6.79955e-06L311.111 0Z" fill="#8FB734"/>
<path d="M466.666 0L544.444 77.7777L622.222 155.555L622.221 -6.79955e-06L466.666 0Z" fill="#8FB734"/>
<path d="M622.223 0L700 77.7777L777.778 155.555L777.778 -6.79955e-06L622.223 0Z" fill="#8FB734"/>
<path d="M777.777 0L855.555 77.7777L933.333 155.555L933.333 -6.79955e-06L777.777 0Z" fill="#8FB734"/>
<path d="M933.332 0L1011.11 77.7777L1088.89 155.555L1088.89 -6.79955e-06L933.332 0Z" fill="#8FB734"/>
<path d="M1088.89 0L1166.67 77.7777L1244.44 155.555L1244.44 -6.79955e-06L1088.89 0Z" fill="#8FB734"/>
<path d="M1244.44 0L1322.22 77.7777L1400 155.555L1400 -6.79955e-06L1244.44 0Z" fill="#8FB734"/>

<!-- Middle layer -->
<path d="M0 155.56L77.7777 233.338L155.555 311.116L155.555 155.56L0 155.56Z" fill="#FFC633"/>
<path d="M155.555 155.56L233.332 233.338L311.11 311.116L311.11 155.56L155.555 155.56Z" fill="#8FB734"/>
<path d="M311.111 155.56L388.889 233.338L466.667 311.116L466.667 155.56L311.111 155.56Z" fill="#8FB734"/>
<path d="M466.666 155.56L544.444 233.338L622.222 311.116L622.221 155.56L466.666 155.56Z" fill="#FFC633"/>
<path d="M622.223 155.56L700 233.338L777.778 311.116L777.778 155.56L622.223 155.56Z" fill="#8FB734"/>
<path d="M777.777 155.56L855.555 233.338L933.333 311.116L933.333 155.56L777.777 155.56Z" fill="#8FB734"/>
<path d="M933.332 155.56L1011.11 233.338L1088.89 311.116L1088.89 155.56L933.332 155.56Z" fill="#FFC633"/>
<path d="M1088.89 155.56L1166.67 233.338L1244.44 311.116L1244.44 155.56L1088.89 155.56Z" fill="#8FB734"/>
<path d="M1244.44 155.56L1322.22 233.338L1400 311.116L1400 155.56L1244.44 155.56Z" fill="#8FB734"/>

<!-- Bottom layer -->
<path d="M0 311.11L77.7777 388.888L155.555 466.666L155.555 311.11L0 311.11Z" fill="#5BC0EB"/>
<path d="M155.555 311.11L233.332 388.888L311.11 466.666L311.11 311.11L155.555 311.11Z" fill="#5BC0EB"/>
<path d="M311.111 311.11L388.889 388.888L466.667 466.666L466.667 311.11L311.111 311.11Z" fill="#8FB734"/>
<path d="M466.666 311.11L544.444 388.888L622.222 466.666L622.221 311.11L466.666 311.11Z" fill="#5BC0EB"/>
<path d="M622.223 311.11L700 388.888L777.778 466.666L777.778 311.11L622.223 311.11Z" fill="#5BC0EB"/>
<path d="M777.777 311.11L855.555 388.888L933.333 466.666L933.333 311.11L777.777 311.11Z" fill="#8FB734"/>
<path d="M933.332 311.11L1011.11 388.888L1088.89 466.666L1088.89 311.11L933.332 311.11Z" fill="#5BC0EB"/>
<path d="M1088.89 311.11L1166.67 388.888L1244.44 466.666L1244.44 311.11L1088.89 311.11Z" fill="#5BC0EB"/>
<path d="M1244.44 311.11L1322.22 388.888L1400 466.666L1400 311.11L1244.44 311.11Z" fill="#5BC0EB"/>
</svg>
