<svg width="166" height="42" viewBox="0 0 166 42" fill="none" xmlns="http://www.w3.org/2000/svg">
<path d="M40.841 0L61.2682 20.4272V0H40.841Z" fill="#555555"/>
<path d="M40.841 20.4272H20.4272V40.8543H0V0H20.4272L40.841 20.4272Z" fill="#555555"/>
<path d="M61.2682 20.4272H40.841V40.8543H61.2682V20.4272Z" fill="#555555"/>
<path d="M159.537 4.54528C162.208 4.54528 164.082 5.78127 164.879 8.01404L162.261 8.62539C161.769 7.49572 160.799 6.91095 159.457 6.91095C158.114 6.91095 157.144 7.45585 157.144 8.29314C157.144 8.70513 157.344 9.03739 157.729 9.26333C158.114 9.51584 158.965 9.75507 160.268 9.981C162.195 10.3664 162.965 10.5658 163.603 10.9512C164.733 11.5625 165.251 12.4929 165.251 13.8086C165.251 15.1243 164.733 16.1211 163.71 16.9185C162.686 17.7159 161.344 18.1279 159.723 18.1279C156.719 18.1279 154.632 16.666 153.994 14.0744L156.613 13.4099C157.104 14.9516 158.208 15.749 159.869 15.749C161.331 15.749 162.354 15.1376 162.354 14.1807C162.354 13.7422 162.155 13.3833 161.769 13.1042C161.384 12.8517 160.507 12.5859 159.178 12.3334C157.304 12.0011 156.56 11.722 155.922 11.3765C154.872 10.7651 154.353 9.83481 154.353 8.57223C154.353 7.30965 154.845 6.36604 155.789 5.62179C156.746 4.90411 157.995 4.54528 159.51 4.54528H159.537Z" fill="#555555"/>
<path d="M147.349 4.54528C150.021 4.54528 151.895 5.78127 152.692 8.01404L150.074 8.62539C149.582 7.49572 148.612 6.91095 147.27 6.91095C145.927 6.91095 144.957 7.45585 144.957 8.29314C144.957 8.70513 145.156 9.03739 145.542 9.26333C145.927 9.51584 146.778 9.75507 148.08 9.981C150.007 10.3664 150.778 10.5658 151.416 10.9512C152.546 11.5625 153.064 12.4929 153.064 13.8086C153.064 15.1243 152.546 16.1211 151.523 16.9185C150.499 17.7159 149.157 18.1279 147.535 18.1279C144.532 18.1279 142.445 16.666 141.807 14.0744L144.425 13.4099C144.917 14.9516 146.02 15.749 147.682 15.749C149.144 15.749 150.167 15.1376 150.167 14.1807C150.167 13.7422 149.968 13.3833 149.582 13.1042C149.197 12.8517 148.32 12.5859 146.991 12.3334C145.117 12.0011 144.372 11.722 143.734 11.3765C142.684 10.7651 142.166 9.83481 142.166 8.57223C142.166 7.30965 142.658 6.36604 143.601 5.62179C144.558 4.90411 145.808 4.54528 147.323 4.54528H147.349Z" fill="#555555"/>
<path d="M140.425 11.2569V12.0543H131.64C131.747 14.2339 132.956 15.749 134.697 15.749C136.106 15.749 137.01 15.0313 137.554 13.4896L140.305 14.101C139.455 16.666 137.408 18.1279 134.71 18.1279C132.863 18.1279 131.428 17.5166 130.364 16.3072C129.314 15.0978 128.77 13.4498 128.77 11.3499C128.77 9.36965 129.341 7.73494 130.444 6.44579C131.547 5.18321 132.929 4.54528 134.657 4.54528C136.385 4.54528 137.82 5.15663 138.87 6.39263C139.92 7.62862 140.438 9.25004 140.438 11.2436L140.425 11.2569ZM134.591 6.93753C133.022 6.93753 131.866 8.2001 131.693 10.074H137.528C137.328 8.09378 136.239 6.93753 134.604 6.93753H134.591Z" fill="#555555"/>
<path d="M106.176 11.3233C106.176 13.3302 105.605 14.9649 104.448 16.2274C103.292 17.49 101.777 18.1279 99.9562 18.1279C98.1354 18.1279 96.6203 17.49 95.4907 16.2274C94.3344 14.9649 93.7629 13.3567 93.7629 11.3233C93.7629 9.28991 94.3344 7.68178 95.4907 6.41921C96.6469 5.15663 98.1354 4.54528 99.9562 4.54528C101.777 4.54528 103.292 5.15663 104.448 6.41921C105.605 7.68178 106.176 9.28991 106.176 11.3233ZM96.6735 11.3233C96.6735 13.9149 97.9361 15.6958 99.9562 15.6958C101.976 15.6958 103.265 13.9282 103.265 11.3233C103.265 8.71842 101.976 6.95082 99.9562 6.95082C97.9361 6.95082 96.6735 8.66526 96.6735 11.3233Z" fill="#555555"/>
<path d="M88.8854 10.393V17.7957H85.9615V4.85095H88.819V7.62862L93.2313 4.57186V7.41598L88.8854 10.393Z" fill="#555555"/>
<path d="M123.879 10.393V17.7957H120.955V4.85095H123.812V7.62862L128.225 4.57186V7.41598L123.879 10.393Z" fill="#555555"/>
<path d="M77.8412 11.0442H74.7313V17.7957H71.515V0H77.8279C82.0143 0 84.3003 1.95367 84.3003 5.44902C84.3003 8.94436 81.908 11.0442 77.8279 11.0442H77.8412ZM77.5089 2.64477H74.7313V8.39946H77.4823C79.8746 8.39946 81.084 7.42927 81.084 5.50218C81.084 3.57509 79.9543 2.64477 77.5089 2.64477Z" fill="#555555"/>
<path d="M118.935 2.40554L115.054 5.09018C114.124 4.70476 113.393 4.54528 112.595 4.54528C111.133 4.54528 109.951 4.95727 108.994 5.80785C108.037 6.65843 107.585 7.73494 107.585 9.01081C107.585 10.1671 108.063 11.3233 108.914 12.1473C108.116 12.6391 107.346 13.689 107.346 14.513C107.346 15.337 107.784 16.0812 108.528 16.4932C108.422 16.573 107.891 16.9983 107.651 17.2375C107.346 17.5299 107.08 17.809 106.96 18.0881C106.761 18.4735 106.655 18.8323 106.655 19.2177C106.655 21.4771 108.887 22.846 112.409 22.846C114.389 22.846 115.944 22.4606 117.101 21.7163C118.257 20.9455 118.855 19.869 118.855 18.5134C118.855 16.3736 117.446 15.2174 114.642 14.9914L110.868 14.6592C110.23 14.6326 109.871 14.3269 109.871 13.8883C109.871 13.5827 110.07 13.2637 110.416 13.0643C111.054 13.2903 111.745 13.4232 112.542 13.4232C114.057 13.4232 115.293 13.0112 116.237 12.2138C117.18 11.4164 117.646 10.393 117.646 9.07726C117.646 8.18681 117.393 7.34953 116.928 6.63185L118.935 5.24966V2.40554ZM110.668 17.2109L114.336 17.5698C115.466 17.6761 115.971 18.1014 115.971 18.8988C115.971 20.1082 114.695 20.8259 112.609 20.8259C110.522 20.8259 109.273 20.1348 109.273 18.9254C109.273 18.1279 109.857 17.4103 110.655 17.1976L110.668 17.2109ZM112.622 11.2834C111.266 11.2834 110.522 10.5126 110.522 9.10384C110.522 7.69507 111.293 6.84449 112.622 6.84449C113.951 6.84449 114.722 7.69507 114.722 9.10384C114.722 10.5126 113.951 11.2834 112.622 11.2834Z" fill="#555555"/>
<path d="M137.687 23.0321H140.611V40.8277H137.78V38.7677H137.727C137.01 40.2828 135.614 41.16 133.873 41.16C132.305 41.16 131.016 40.5486 130.045 39.3127C129.075 38.1032 128.583 36.4818 128.583 34.5149C128.583 32.5479 129.102 30.8202 130.152 29.5044C131.175 28.2153 132.491 27.5773 134.086 27.5773C135.68 27.5773 137.063 28.4013 137.661 29.7038H137.687V23.0321ZM131.547 34.382C131.547 37.1596 132.677 38.7545 134.657 38.7545C136.637 38.7545 137.767 37.133 137.767 34.382C137.767 31.6309 136.584 29.9962 134.657 29.9962C132.73 29.9962 131.547 31.6176 131.547 34.382Z" fill="#555555"/>
<path d="M113.898 31.7904V40.8277H111.04L110.961 39.1532H110.934C110.11 40.4822 108.781 41.16 106.92 41.16C104.355 41.16 102.893 39.7512 102.893 37.359C102.893 35.1262 104.183 33.8636 106.947 33.3719C107.332 33.2922 107.824 33.2124 108.356 33.146C108.901 33.0662 109.18 33.0396 109.233 33.0396C110.642 32.8403 111 32.5213 111 31.91V31.8036C111 30.4879 110.283 29.9031 108.741 29.9031C107.412 29.9031 106.615 30.5145 106.123 31.9897L103.292 31.4049C104.289 28.7336 106.043 27.5773 108.94 27.5773C112.197 27.5773 113.871 29.0127 113.871 31.7904H113.898ZM107.904 38.9272C109.831 38.9272 110.961 37.771 110.961 35.8439V34.4617C110.522 34.794 110.004 34.98 108.568 35.1794C107.439 35.3654 106.694 35.5914 106.362 35.897C106.03 36.2027 105.844 36.6413 105.844 37.2261C105.844 38.3558 106.482 38.9272 107.904 38.9272Z" fill="#555555"/>
<path d="M98.4943 23.0321H101.418V40.8277H98.4943V23.0321Z" fill="#555555"/>
<path d="M96.5273 34.2889V35.0863H87.7424C87.8488 37.2659 89.0582 38.781 90.7992 38.781C92.208 38.781 93.1117 38.0634 93.6566 36.5217L96.4077 37.133C95.5571 39.6981 93.5104 41.16 90.8125 41.16C88.9651 41.16 87.5298 40.5486 86.4666 39.3392C85.4166 38.1298 84.8717 36.4818 84.8717 34.382C84.8717 32.4017 85.4432 30.767 86.5463 29.4778C87.6494 28.2153 89.0316 27.5773 90.7593 27.5773C92.4871 27.5773 93.9224 28.1887 94.9724 29.4247C96.0223 30.6607 96.5406 32.2821 96.5406 34.2756L96.5273 34.2889ZM90.6929 29.9696C89.1246 29.9696 87.9684 31.2322 87.7956 33.1061H93.63C93.4307 31.1258 92.3409 29.9696 90.7062 29.9696H90.6929Z" fill="#555555"/>
<path d="M71.5283 23.0321H74.7711V40.8277H71.5283V23.0321Z" fill="#555555"/>
<path d="M79.6354 33.4516V40.841H76.7115V27.8963H79.5689V30.674L83.9813 27.6172V30.4613L79.6354 33.4649V33.4516Z" fill="#555555"/>
<path d="M125.673 28.2153C125.128 27.79 124.41 27.5773 123.533 27.5773C123.4 27.5773 123.267 27.5773 123.134 27.6039C122.749 27.6571 122.39 27.8166 122.071 28.0425L118.948 30.1955V27.883H116.157V40.8277H119.081V32.7605L121.34 31.1923L122.842 30.1556C122.988 30.0493 123.188 30.0095 123.374 30.0759C123.826 30.2354 124.025 30.7271 124.025 31.4315V40.8277H126.949V31.4581C126.949 29.943 126.51 28.8399 125.673 28.2153Z" fill="#555555"/>
</svg>
